<svg xmlns="http://www.w3.org/2000/svg" xmlns:xlink="http://www.w3.org/1999/xlink" version="1.1" viewBox="0 0 256 256" xml:space="preserve">
    <g style="stroke: none; stroke-width: 0; stroke-dasharray: none; stroke-linecap: butt; stroke-linejoin: miter; stroke-miterlimit: 10; fill: none; fill-rule: nonzero; opacity: 1;" transform="translate(1.4065934065934016 1.4065934065934016) scale(2.81 2.81)">
        <path d="M 45 90 c -15.687 0 -29.998 -8.623 -37.349 -22.505 l -0.743 -1.404 l 0.743 -1.403 c 4.182 -7.899 10.911 -14.396 18.945 -18.294 c 2.883 -1.397 6.24 -1.377 9.215 0.052 c 2.879 1.384 5.971 2.086 9.188 2.086 c 3.218 0 6.31 -0.702 9.188 -2.086 c 2.975 -1.43 6.333 -1.449 9.215 -0.052 l 0 0 c 8.035 3.898 14.764 10.396 18.945 18.294 l 0.743 1.403 l -0.743 1.404 C 74.998 81.377 60.687 90 45 90 z M 13.737 66.092 C 20.244 77.179 32.079 84 45 84 c 12.921 0 24.756 -6.821 31.263 -17.908 c -3.618 -6.146 -9.063 -11.188 -15.479 -14.3 c -1.223 -0.594 -2.678 -0.571 -3.996 0.062 C 53.091 53.63 49.125 54.531 45 54.531 c -4.125 0 -8.09 -0.901 -11.788 -2.678 c -1.315 -0.633 -2.773 -0.656 -3.997 -0.062 C 22.8 54.904 17.355 59.946 13.737 66.092 z" style="stroke: none; stroke-width: 1; stroke-dasharray: none; stroke-linecap: butt; stroke-linejoin: miter; stroke-miterlimit: 10; fill: rgb(0,0,0); fill-rule: nonzero; opacity: 1;" transform=" matrix(1 0 0 1 0 0) " stroke-linecap="round"/>
        <path d="M 45 43.747 c -12.061 0 -21.873 -9.813 -21.873 -21.874 S 32.939 0 45 0 c 12.061 0 21.873 9.812 21.873 21.873 S 57.061 43.747 45 43.747 z M 45 6 c -8.752 0 -15.873 7.121 -15.873 15.873 c 0 8.753 7.121 15.874 15.873 15.874 c 8.752 0 15.873 -7.121 15.873 -15.874 C 60.873 13.121 53.752 6 45 6 z" style="stroke: none; stroke-width: 1; stroke-dasharray: none; stroke-linecap: butt; stroke-linejoin: miter; stroke-miterlimit: 10; fill: rgb(0,0,0); fill-rule: nonzero; opacity: 1;" transform=" matrix(1 0 0 1 0 0) " stroke-linecap="round"/>
    </g>
</svg>