<svg xmlns="http://www.w3.org/2000/svg" xmlns:xlink="http://www.w3.org/1999/xlink" version="1.1" viewBox="0 0 256 256" xml:space="preserve">
    <g style="stroke: none; stroke-width: 0; stroke-dasharray: none; stroke-linecap: butt; stroke-linejoin: miter; stroke-miterlimit: 10; fill: none; fill-rule: nonzero; opacity: 1;" transform="translate(1.4065934065934016 1.4065934065934016) scale(2.81 2.81)">
        <path d="M 90 38.688 c 0 -6.96 -5.133 -12.641 -11.545 -12.945 V 9.279 c 0 -2.302 -1.269 -4.391 -3.311 -5.452 c -2.048 -1.063 -4.49 -0.899 -6.381 0.428 C 55.458 13.605 42.019 19.138 28.815 20.7 H 17.984 C 8.068 20.7 0 28.768 0 38.685 c 0 8.557 6.122 15.821 14.218 17.572 v 18.452 c 0 6.706 5.456 12.161 12.161 12.161 S 38.54 81.415 38.54 74.709 V 58.536 c 10.035 2.633 20.181 7.526 30.223 14.584 c 1.888 1.326 4.332 1.492 6.381 0.43 c 2.043 -1.061 3.312 -3.149 3.312 -5.452 V 51.633 C 84.867 51.328 90 45.647 90 38.688 z M 71.455 66.469 c -11.813 -8.081 -23.826 -13.383 -35.728 -15.765 l -4.187 -0.838 v 24.843 c 0 2.846 -2.315 5.161 -5.161 5.161 s -5.161 -2.315 -5.161 -5.161 v -24.99 l -3.436 -0.063 C 11.836 49.548 7 44.626 7 38.685 C 7 32.628 11.928 27.7 17.984 27.7 h 11.034 l 0.401 -0.023 c 13.992 -1.614 28.127 -7.254 42.035 -16.77 V 66.469 z M 78.455 44.628 v -11.88 c 2.55 0.317 4.545 2.86 4.545 5.94 S 81.005 44.311 78.455 44.628 z" style="stroke: none; stroke-width: 1; stroke-dasharray: none; stroke-linecap: butt; stroke-linejoin: miter; stroke-miterlimit: 10; fill: rgb(0,0,0); fill-rule: nonzero; opacity: 1;" transform=" matrix(1 0 0 1 0 0) " stroke-linecap="round"/>
    </g>
</svg>