<svg xmlns="http://www.w3.org/2000/svg" xmlns:xlink="http://www.w3.org/1999/xlink" version="1.1" viewBox="0 0 256 256" xml:space="preserve">
    <g style="stroke: none; stroke-width: 0; stroke-dasharray: none; stroke-linecap: butt; stroke-linejoin: miter; stroke-miterlimit: 10; fill: none; fill-rule: nonzero; opacity: 1;" transform="translate(1.4065934065934016 1.4065934065934016) scale(2.81 2.81)">
        <circle cx="31.25" cy="31.34" r="7.36" style="stroke: none; stroke-width: 1; stroke-dasharray: none; stroke-linecap: butt; stroke-linejoin: miter; stroke-miterlimit: 10; fill: rgb(0,0,0); fill-rule: nonzero; opacity: 1;" transform="  matrix(1 0 0 1 0 0) "/>
        <path d="M 27.502 65.197 c -0.724 0 -1.449 -0.26 -2.025 -0.787 c -1.222 -1.119 -1.306 -3.018 -0.187 -4.239 l 34.994 -38.212 c 1.119 -1.222 3.017 -1.306 4.239 -0.187 c 1.222 1.119 1.305 3.017 0.187 4.238 L 29.715 64.224 C 29.124 64.869 28.314 65.197 27.502 65.197 z" style="stroke: none; stroke-width: 1; stroke-dasharray: none; stroke-linecap: butt; stroke-linejoin: miter; stroke-miterlimit: 10; fill: rgb(0,0,0); fill-rule: nonzero; opacity: 1;" transform=" matrix(1 0 0 1 0 0) " stroke-linecap="round"/>
        <circle cx="58.75" cy="54.839999999999996" r="7.36" style="stroke: none; stroke-width: 1; stroke-dasharray: none; stroke-linecap: butt; stroke-linejoin: miter; stroke-miterlimit: 10; fill: rgb(0,0,0); fill-rule: nonzero; opacity: 1;" transform="  matrix(1 0 0 1 0 0) "/>
        <path d="M 79.224 90 c -0.781 0 -1.549 -0.305 -2.122 -0.879 l -4.724 -4.724 l -4.724 4.724 c -1.172 1.172 -3.07 1.172 -4.242 0 l -4.724 -4.723 l -4.723 4.723 c -1.125 1.125 -3.117 1.125 -4.242 0 L 45 84.398 l -4.723 4.723 c -1.126 1.125 -3.118 1.125 -4.243 0 l -4.724 -4.723 l -4.723 4.723 c -1.125 1.125 -3.117 1.125 -4.243 0 l -4.724 -4.723 l -4.723 4.723 c -0.858 0.858 -2.15 1.115 -3.27 0.65 C 8.509 89.308 7.778 88.214 7.778 87 V 3 c 0 -1.657 1.343 -3 3 -3 h 68.445 c 1.657 0 3 1.343 3 3 v 84 c 0 1.214 -0.73 2.308 -1.852 2.771 C 80 89.926 79.609 90 79.224 90 z M 58.688 77.155 c 0.796 0 1.559 0.316 2.121 0.879 l 4.724 4.724 l 4.724 -4.724 c 1.172 -1.172 3.07 -1.172 4.242 0 l 1.724 1.724 V 6 H 13.778 v 73.757 l 1.723 -1.723 c 1.125 -1.125 3.118 -1.125 4.243 0 l 4.724 4.723 l 4.723 -4.723 c 1.125 -1.125 3.117 -1.125 4.243 0 l 4.724 4.723 l 4.723 -4.723 c 1.126 -1.125 3.118 -1.125 4.243 0 l 4.724 4.723 l 4.723 -4.723 C 57.13 77.472 57.893 77.155 58.688 77.155 z" style="stroke: none; stroke-width: 1; stroke-dasharray: none; stroke-linecap: butt; stroke-linejoin: miter; stroke-miterlimit: 10; fill: rgb(0,0,0); fill-rule: nonzero; opacity: 1;" transform=" matrix(1 0 0 1 0 0) " stroke-linecap="round"/>
    </g>
</svg>